<mxfile host="Electron" agent="Mozilla/5.0 (Macintosh; Intel Mac OS X 10_15_7) AppleWebKit/537.36 (KHTML, like Gecko) draw.io/26.0.4 Chrome/128.0.6613.186 Electron/32.2.5 Safari/537.36" version="26.0.4" pages="3">
  <diagram name="Resgister via Connect (not required)" id="74e2e168-ea6b-b213-b513-2b3c1d86103e">
    <mxGraphModel dx="1020" dy="660" grid="1" gridSize="10" guides="1" tooltips="1" connect="1" arrows="1" fold="1" page="1" pageScale="1" pageWidth="1100" pageHeight="850" background="none" math="0" shadow="0">
      <root>
        <mxCell id="0" />
        <mxCell id="1" parent="0" />
        <mxCell id="77e6c97f196da883-1" value="Pool" style="swimlane;html=1;childLayout=stackLayout;startSize=20;rounded=0;shadow=0;labelBackgroundColor=none;strokeWidth=1;fontFamily=Verdana;fontSize=8;align=center;" parent="1" vertex="1">
          <mxGeometry x="370" width="610" height="840" as="geometry" />
        </mxCell>
        <mxCell id="77e6c97f196da883-2" value="Client Side (Flutter)" style="swimlane;html=1;startSize=20;" parent="77e6c97f196da883-1" vertex="1">
          <mxGeometry y="20" width="280" height="820" as="geometry" />
        </mxCell>
        <mxCell id="a5jDp_VEbeIc0V3kGwnW-9" style="edgeStyle=orthogonalEdgeStyle;rounded=0;orthogonalLoop=1;jettySize=auto;html=1;" parent="77e6c97f196da883-2" source="77e6c97f196da883-8" target="a5jDp_VEbeIc0V3kGwnW-8" edge="1">
          <mxGeometry relative="1" as="geometry" />
        </mxCell>
        <mxCell id="77e6c97f196da883-8" value="Add Bank Account Data" style="rounded=1;whiteSpace=wrap;html=1;shadow=0;labelBackgroundColor=none;strokeWidth=1;fontFamily=Verdana;fontSize=8;align=center;" parent="77e6c97f196da883-2" vertex="1">
          <mxGeometry x="20" y="40" width="170" height="60" as="geometry" />
        </mxCell>
        <mxCell id="a5jDp_VEbeIc0V3kGwnW-8" value="Create bank token" style="rounded=1;whiteSpace=wrap;html=1;shadow=0;labelBackgroundColor=none;strokeWidth=1;fontFamily=Verdana;fontSize=8;align=center;" parent="77e6c97f196da883-2" vertex="1">
          <mxGeometry x="20" y="150" width="170" height="60" as="geometry" />
        </mxCell>
        <mxCell id="77e6c97f196da883-3" value="Back End (.net)" style="swimlane;html=1;startSize=20;" parent="77e6c97f196da883-1" vertex="1">
          <mxGeometry x="280" y="20" width="330" height="820" as="geometry" />
        </mxCell>
        <mxCell id="a5jDp_VEbeIc0V3kGwnW-14" style="edgeStyle=orthogonalEdgeStyle;rounded=0;orthogonalLoop=1;jettySize=auto;html=1;" parent="77e6c97f196da883-3" source="a5jDp_VEbeIc0V3kGwnW-11" target="a5jDp_VEbeIc0V3kGwnW-13" edge="1">
          <mxGeometry relative="1" as="geometry" />
        </mxCell>
        <mxCell id="a5jDp_VEbeIc0V3kGwnW-11" value="Save bank data in database" style="rounded=1;whiteSpace=wrap;html=1;shadow=0;labelBackgroundColor=none;strokeWidth=1;fontFamily=Verdana;fontSize=8;align=center;" parent="77e6c97f196da883-3" vertex="1">
          <mxGeometry x="90" y="150" width="170" height="60" as="geometry" />
        </mxCell>
        <mxCell id="a5jDp_VEbeIc0V3kGwnW-16" style="edgeStyle=orthogonalEdgeStyle;rounded=0;orthogonalLoop=1;jettySize=auto;html=1;entryX=0.5;entryY=0;entryDx=0;entryDy=0;" parent="77e6c97f196da883-3" source="a5jDp_VEbeIc0V3kGwnW-13" target="a5jDp_VEbeIc0V3kGwnW-15" edge="1">
          <mxGeometry relative="1" as="geometry" />
        </mxCell>
        <mxCell id="a5jDp_VEbeIc0V3kGwnW-13" value="Create a stipe bank account id" style="rounded=1;whiteSpace=wrap;html=1;shadow=0;labelBackgroundColor=none;strokeWidth=1;fontFamily=Verdana;fontSize=8;align=center;" parent="77e6c97f196da883-3" vertex="1">
          <mxGeometry x="90" y="260" width="170" height="60" as="geometry" />
        </mxCell>
        <mxCell id="a5jDp_VEbeIc0V3kGwnW-18" style="edgeStyle=orthogonalEdgeStyle;rounded=0;orthogonalLoop=1;jettySize=auto;html=1;" parent="77e6c97f196da883-3" source="a5jDp_VEbeIc0V3kGwnW-15" target="a5jDp_VEbeIc0V3kGwnW-17" edge="1">
          <mxGeometry relative="1" as="geometry" />
        </mxCell>
        <mxCell id="a5jDp_VEbeIc0V3kGwnW-15" value="Create a stripe connect account for the freelancer" style="rounded=1;whiteSpace=wrap;html=1;shadow=0;labelBackgroundColor=none;strokeWidth=1;fontFamily=Verdana;fontSize=8;align=center;" parent="77e6c97f196da883-3" vertex="1">
          <mxGeometry x="90" y="360" width="170" height="60" as="geometry" />
        </mxCell>
        <mxCell id="a5jDp_VEbeIc0V3kGwnW-17" value="Link the stripe connect account with bank account id" style="rounded=1;whiteSpace=wrap;html=1;shadow=0;labelBackgroundColor=none;strokeWidth=1;fontFamily=Verdana;fontSize=8;align=center;" parent="77e6c97f196da883-3" vertex="1">
          <mxGeometry x="90" y="470" width="170" height="60" as="geometry" />
        </mxCell>
        <mxCell id="a5jDp_VEbeIc0V3kGwnW-12" style="edgeStyle=orthogonalEdgeStyle;rounded=0;orthogonalLoop=1;jettySize=auto;html=1;entryX=0;entryY=0.5;entryDx=0;entryDy=0;" parent="77e6c97f196da883-1" source="a5jDp_VEbeIc0V3kGwnW-8" target="a5jDp_VEbeIc0V3kGwnW-11" edge="1">
          <mxGeometry relative="1" as="geometry" />
        </mxCell>
        <mxCell id="a5jDp_VEbeIc0V3kGwnW-3" style="edgeStyle=orthogonalEdgeStyle;rounded=0;orthogonalLoop=1;jettySize=auto;html=1;exitX=0.5;exitY=0.5;exitDx=0;exitDy=0;exitPerimeter=0;entryX=0;entryY=0.5;entryDx=0;entryDy=0;" parent="1" source="a5jDp_VEbeIc0V3kGwnW-1" target="77e6c97f196da883-8" edge="1">
          <mxGeometry relative="1" as="geometry">
            <mxPoint x="230" y="120" as="targetPoint" />
          </mxGeometry>
        </mxCell>
        <mxCell id="a5jDp_VEbeIc0V3kGwnW-1" value="Freelancer" style="shape=umlActor;verticalLabelPosition=bottom;verticalAlign=top;html=1;outlineConnect=0;" parent="1" vertex="1">
          <mxGeometry x="90" y="60" width="30" height="60" as="geometry" />
        </mxCell>
      </root>
    </mxGraphModel>
  </diagram>
  <diagram name="Freelancer External Registration" id="KpzpyFA9pa-oaMP32l0s">
    <mxGraphModel dx="1530" dy="990" grid="1" gridSize="10" guides="1" tooltips="1" connect="1" arrows="1" fold="1" page="1" pageScale="1" pageWidth="1100" pageHeight="850" background="none" math="0" shadow="0">
      <root>
        <mxCell id="MaTbqMn92vpP0bYQCrOi-0" />
        <mxCell id="MaTbqMn92vpP0bYQCrOi-1" parent="MaTbqMn92vpP0bYQCrOi-0" />
        <mxCell id="MaTbqMn92vpP0bYQCrOi-2" value="Pool" style="swimlane;html=1;childLayout=stackLayout;startSize=20;rounded=0;shadow=0;labelBackgroundColor=none;strokeWidth=1;fontFamily=Verdana;fontSize=8;align=center;" vertex="1" parent="MaTbqMn92vpP0bYQCrOi-1">
          <mxGeometry x="350" width="890" height="660" as="geometry" />
        </mxCell>
        <mxCell id="q9XsbVHvOXFghgjoNCJE-0" value="Stripe.com" style="swimlane;html=1;startSize=20;" vertex="1" parent="MaTbqMn92vpP0bYQCrOi-2">
          <mxGeometry y="20" width="280" height="640" as="geometry" />
        </mxCell>
        <mxCell id="q9XsbVHvOXFghgjoNCJE-1" value="Register (Create) Stripe Account" style="rounded=1;whiteSpace=wrap;html=1;shadow=0;labelBackgroundColor=none;strokeWidth=1;fontFamily=Verdana;fontSize=8;align=center;" vertex="1" parent="q9XsbVHvOXFghgjoNCJE-0">
          <mxGeometry x="55" y="50" width="170" height="60" as="geometry" />
        </mxCell>
        <mxCell id="MaTbqMn92vpP0bYQCrOi-3" value="Client Side (Flutter)" style="swimlane;html=1;startSize=20;" vertex="1" parent="MaTbqMn92vpP0bYQCrOi-2">
          <mxGeometry x="280" y="20" width="280" height="640" as="geometry" />
        </mxCell>
        <mxCell id="MaTbqMn92vpP0bYQCrOi-6" value="Provide Stripe Account Info" style="rounded=1;whiteSpace=wrap;html=1;shadow=0;labelBackgroundColor=none;strokeWidth=1;fontFamily=Verdana;fontSize=8;align=center;" vertex="1" parent="MaTbqMn92vpP0bYQCrOi-3">
          <mxGeometry x="55" y="50" width="170" height="60" as="geometry" />
        </mxCell>
        <mxCell id="q9XsbVHvOXFghgjoNCJE-11" value="Approve Time Sheet" style="rounded=1;whiteSpace=wrap;html=1;shadow=0;labelBackgroundColor=none;strokeWidth=1;fontFamily=Verdana;fontSize=8;align=center;" vertex="1" parent="MaTbqMn92vpP0bYQCrOi-3">
          <mxGeometry x="55" y="150" width="170" height="60" as="geometry" />
        </mxCell>
        <mxCell id="q9XsbVHvOXFghgjoNCJE-9" value="Show Error" style="rounded=1;whiteSpace=wrap;html=1;fontSize=12;glass=0;strokeWidth=1;shadow=0;" vertex="1" parent="MaTbqMn92vpP0bYQCrOi-3">
          <mxGeometry x="55" y="270" width="155" height="40" as="geometry" />
        </mxCell>
        <mxCell id="q9XsbVHvOXFghgjoNCJE-8" value="Show Success with Confirmation #" style="rounded=1;whiteSpace=wrap;html=1;fontSize=12;glass=0;strokeWidth=1;shadow=0;" vertex="1" parent="MaTbqMn92vpP0bYQCrOi-3">
          <mxGeometry x="55" y="380" width="181" height="90" as="geometry" />
        </mxCell>
        <mxCell id="MaTbqMn92vpP0bYQCrOi-7" value="Back End (.net)" style="swimlane;html=1;startSize=20;" vertex="1" parent="MaTbqMn92vpP0bYQCrOi-2">
          <mxGeometry x="560" y="20" width="330" height="640" as="geometry" />
        </mxCell>
        <mxCell id="MaTbqMn92vpP0bYQCrOi-9" value="Save Stripe Account Info" style="rounded=1;whiteSpace=wrap;html=1;shadow=0;labelBackgroundColor=none;strokeWidth=1;fontFamily=Verdana;fontSize=8;align=center;" vertex="1" parent="MaTbqMn92vpP0bYQCrOi-7">
          <mxGeometry x="90" y="50" width="170" height="60" as="geometry" />
        </mxCell>
        <mxCell id="MaTbqMn92vpP0bYQCrOi-10" style="edgeStyle=orthogonalEdgeStyle;rounded=0;orthogonalLoop=1;jettySize=auto;html=1;entryX=0.5;entryY=0;entryDx=0;entryDy=0;" edge="1" parent="MaTbqMn92vpP0bYQCrOi-7" target="MaTbqMn92vpP0bYQCrOi-13">
          <mxGeometry relative="1" as="geometry">
            <mxPoint x="175" y="320" as="sourcePoint" />
          </mxGeometry>
        </mxCell>
        <mxCell id="MaTbqMn92vpP0bYQCrOi-12" style="edgeStyle=orthogonalEdgeStyle;rounded=0;orthogonalLoop=1;jettySize=auto;html=1;" edge="1" parent="MaTbqMn92vpP0bYQCrOi-7" target="MaTbqMn92vpP0bYQCrOi-14">
          <mxGeometry relative="1" as="geometry">
            <mxPoint x="175" y="420" as="sourcePoint" />
          </mxGeometry>
        </mxCell>
        <mxCell id="q9XsbVHvOXFghgjoNCJE-7" value="Error?" style="rhombus;whiteSpace=wrap;html=1;shadow=0;fontFamily=Helvetica;fontSize=12;align=center;strokeWidth=1;spacing=6;spacingTop=-4;" vertex="1" parent="MaTbqMn92vpP0bYQCrOi-7">
          <mxGeometry x="95" y="230" width="170" height="120" as="geometry" />
        </mxCell>
        <mxCell id="MaTbqMn92vpP0bYQCrOi-15" style="edgeStyle=orthogonalEdgeStyle;rounded=0;orthogonalLoop=1;jettySize=auto;html=1;entryX=0;entryY=0.5;entryDx=0;entryDy=0;" edge="1" parent="MaTbqMn92vpP0bYQCrOi-2" source="MaTbqMn92vpP0bYQCrOi-6" target="MaTbqMn92vpP0bYQCrOi-9">
          <mxGeometry relative="1" as="geometry" />
        </mxCell>
        <mxCell id="q9XsbVHvOXFghgjoNCJE-2" style="edgeStyle=orthogonalEdgeStyle;rounded=0;orthogonalLoop=1;jettySize=auto;html=1;entryX=0;entryY=0.5;entryDx=0;entryDy=0;" edge="1" parent="MaTbqMn92vpP0bYQCrOi-2" source="q9XsbVHvOXFghgjoNCJE-1" target="MaTbqMn92vpP0bYQCrOi-6">
          <mxGeometry relative="1" as="geometry" />
        </mxCell>
        <mxCell id="q9XsbVHvOXFghgjoNCJE-5" value="Yes" style="rounded=0;html=1;jettySize=auto;orthogonalLoop=1;fontSize=11;endArrow=block;endFill=0;endSize=8;strokeWidth=1;shadow=0;labelBackgroundColor=none;edgeStyle=orthogonalEdgeStyle;entryX=1;entryY=0.5;entryDx=0;entryDy=0;exitX=0;exitY=0.5;exitDx=0;exitDy=0;" edge="1" parent="MaTbqMn92vpP0bYQCrOi-2" source="q9XsbVHvOXFghgjoNCJE-7" target="q9XsbVHvOXFghgjoNCJE-9">
          <mxGeometry y="20" relative="1" as="geometry">
            <mxPoint as="offset" />
            <mxPoint x="740" y="470" as="targetPoint" />
          </mxGeometry>
        </mxCell>
        <mxCell id="q9XsbVHvOXFghgjoNCJE-6" value="No" style="edgeStyle=orthogonalEdgeStyle;rounded=0;html=1;jettySize=auto;orthogonalLoop=1;fontSize=11;endArrow=block;endFill=0;endSize=8;strokeWidth=1;shadow=0;labelBackgroundColor=none;entryX=1;entryY=0.5;entryDx=0;entryDy=0;exitX=0.5;exitY=1;exitDx=0;exitDy=0;" edge="1" parent="MaTbqMn92vpP0bYQCrOi-2" source="q9XsbVHvOXFghgjoNCJE-7" target="q9XsbVHvOXFghgjoNCJE-8">
          <mxGeometry y="10" relative="1" as="geometry">
            <mxPoint as="offset" />
          </mxGeometry>
        </mxCell>
        <mxCell id="MaTbqMn92vpP0bYQCrOi-16" style="edgeStyle=orthogonalEdgeStyle;rounded=0;orthogonalLoop=1;jettySize=auto;html=1;exitX=0.5;exitY=0.5;exitDx=0;exitDy=0;exitPerimeter=0;entryX=0;entryY=0.5;entryDx=0;entryDy=0;" edge="1" parent="MaTbqMn92vpP0bYQCrOi-1" source="MaTbqMn92vpP0bYQCrOi-17" target="q9XsbVHvOXFghgjoNCJE-1">
          <mxGeometry relative="1" as="geometry">
            <mxPoint x="230" y="120" as="targetPoint" />
          </mxGeometry>
        </mxCell>
        <mxCell id="MaTbqMn92vpP0bYQCrOi-17" value="Freelancer" style="shape=umlActor;verticalLabelPosition=bottom;verticalAlign=top;html=1;outlineConnect=0;" vertex="1" parent="MaTbqMn92vpP0bYQCrOi-1">
          <mxGeometry x="90" y="60" width="30" height="60" as="geometry" />
        </mxCell>
        <mxCell id="q9XsbVHvOXFghgjoNCJE-3" value="" style="rounded=0;html=1;jettySize=auto;orthogonalLoop=1;fontSize=11;endArrow=block;endFill=0;endSize=8;strokeWidth=1;shadow=0;labelBackgroundColor=none;edgeStyle=orthogonalEdgeStyle;" edge="1" parent="MaTbqMn92vpP0bYQCrOi-1" source="q9XsbVHvOXFghgjoNCJE-4" target="q9XsbVHvOXFghgjoNCJE-7">
          <mxGeometry relative="1" as="geometry" />
        </mxCell>
        <mxCell id="q9XsbVHvOXFghgjoNCJE-4" value="Make a payout" style="rounded=1;whiteSpace=wrap;html=1;fontSize=12;glass=0;strokeWidth=1;shadow=0;" vertex="1" parent="MaTbqMn92vpP0bYQCrOi-1">
          <mxGeometry x="1000" y="180" width="180" height="40" as="geometry" />
        </mxCell>
        <mxCell id="q9XsbVHvOXFghgjoNCJE-12" style="edgeStyle=orthogonalEdgeStyle;rounded=0;orthogonalLoop=1;jettySize=auto;html=1;" edge="1" parent="MaTbqMn92vpP0bYQCrOi-1" source="q9XsbVHvOXFghgjoNCJE-10" target="q9XsbVHvOXFghgjoNCJE-11">
          <mxGeometry relative="1" as="geometry" />
        </mxCell>
        <mxCell id="q9XsbVHvOXFghgjoNCJE-10" value="Job Manager" style="shape=umlActor;verticalLabelPosition=bottom;verticalAlign=top;html=1;outlineConnect=0;" vertex="1" parent="MaTbqMn92vpP0bYQCrOi-1">
          <mxGeometry x="90" y="170" width="30" height="60" as="geometry" />
        </mxCell>
        <mxCell id="q9XsbVHvOXFghgjoNCJE-13" style="edgeStyle=orthogonalEdgeStyle;rounded=0;orthogonalLoop=1;jettySize=auto;html=1;" edge="1" parent="MaTbqMn92vpP0bYQCrOi-1" source="q9XsbVHvOXFghgjoNCJE-11" target="q9XsbVHvOXFghgjoNCJE-4">
          <mxGeometry relative="1" as="geometry" />
        </mxCell>
      </root>
    </mxGraphModel>
  </diagram>
  <diagram id="brNt1oc2_P7BFy9cKuKH" name="Page-3">
    <mxGraphModel dx="1434" dy="792" grid="0" gridSize="10" guides="1" tooltips="1" connect="1" arrows="1" fold="1" page="1" pageScale="1" pageWidth="850" pageHeight="1000" math="0" shadow="0">
      <root>
        <mxCell id="0" />
        <mxCell id="1" parent="0" />
        <mxCell id="owNyNo-F-W_nkIX2NgKU-1" value="Customer Account" style="rounded=1;whiteSpace=wrap;html=1;" vertex="1" parent="1">
          <mxGeometry x="305" y="387" width="120" height="60" as="geometry" />
        </mxCell>
        <mxCell id="owNyNo-F-W_nkIX2NgKU-3" style="edgeStyle=orthogonalEdgeStyle;rounded=0;orthogonalLoop=1;jettySize=auto;html=1;" edge="1" parent="1" source="owNyNo-F-W_nkIX2NgKU-2" target="owNyNo-F-W_nkIX2NgKU-1">
          <mxGeometry relative="1" as="geometry" />
        </mxCell>
        <mxCell id="owNyNo-F-W_nkIX2NgKU-2" value="Job Provider" style="shape=umlActor;verticalLabelPosition=bottom;verticalAlign=top;html=1;outlineConnect=0;" vertex="1" parent="1">
          <mxGeometry x="170" y="387" width="30" height="60" as="geometry" />
        </mxCell>
      </root>
    </mxGraphModel>
  </diagram>
</mxfile>
